PathFileType	4	(X/Y/Z)	C:/Users/opensim2020/Desktop/walking_exp_matlab/subject03_walking04_straight_04.trc	
DataRate	CameraRate	NumFrames	NumMarkers	Units	OrigDataRate	OrigDataStartFrame	OrigNumFrames	
100.00	100.00	8	51	mm	100.00	3135	293	
Frame#	Time	LFHD			RFHD			LBHD			RBHD			C7			T10			CLAV			STRN			RBAK			LSHO			LUPA			LELB			LFRM			LWRA			LWRB			LFIN			RSHO			RUPA			RELB			RFRM			RWRA			RWRB			RFIN			LASI			RASI			LPSI			RPSI			LTHI			LKNE			LTIB			LANK			LHEE			LTOE			RTHI			RKNE			RTIB			RANK			RHEE			RTOE			*39			*40			*41			*42			*43			*44			*45			*46			*47			*48			*49			*50			
		X1	Y1	Z1	X2	Y2	Z2	X3	Y3	Z3	X4	Y4	Z4	X5	Y5	Z5	X6	Y6	Z6	X7	Y7	Z7	X8	Y8	Z8	X9	Y9	Z9	X10	Y10	Z10	X11	Y11	Z11	X12	Y12	Z12	X13	Y13	Z13	X14	Y14	Z14	X15	Y15	Z15	X16	Y16	Z16	X17	Y17	Z17	X18	Y18	Z18	X19	Y19	Z19	X20	Y20	Z20	X21	Y21	Z21	X22	Y22	Z22	X23	Y23	Z23	X24	Y24	Z24	X25	Y25	Z25	X26	Y26	Z26	X27	Y27	Z27	X28	Y28	Z28	X29	Y29	Z29	X30	Y30	Z30	X31	Y31	Z31	X32	Y32	Z32	X33	Y33	Z33	X34	Y34	Z34	X35	Y35	Z35	X36	Y36	Z36	X37	Y37	Z37	X38	Y38	Z38	X39	Y39	Z39	X40	Y40	Z40	X41	Y41	Z41	X42	Y42	Z42	X43	Y43	Z43	X44	Y44	Z44	X45	Y45	Z45	X46	Y46	Z46	X47	Y47	Z47	X48	Y48	Z48	X49	Y49	Z49	X50	Y50	Z50	X51	Y51	Z51	

110	1.090	1687.10803	520.48499	1625.56653	1555.92627	541.74487	1632.27698	1698.48840	639.85718	1561.23767	1569.43750	656.24530	1569.07239	1636.21973	662.32281	1416.74402	1632.76831	696.83655	1104.06213	1623.13354	537.04675	1342.12695	1621.68359	495.19260	1177.24072	1535.83203	720.25336	1245.81262	1783.90515	567.89185	1375.25427	1850.05286	595.50714	1176.17444	1859.88623	608.57526	1052.94922	1861.37915	608.92871	922.86151	1832.67285	614.76855	803.09845	1884.44519	636.09607	813.19763	1873.04907	645.51880	727.66583	1468.85010	592.71222	1368.17627	1392.03125	558.48419	1151.03259	1379.93188	515.12976	1047.53772	1386.38977	449.93457	928.06195	1430.20483	387.54938	855.72003	1386.63586	412.15076	835.13458	1400.97949	361.74884	783.03046	1734.22009	515.21674	944.33051	1497.61096	539.20740	937.33258	1701.21765	681.71643	964.48224	1551.79175	693.86597	968.47931	1772.35657	531.79285	642.39075	1724.65710	496.59940	470.23962	1725.18347	510.73157	275.81210	1682.97949	485.26855	68.49802	1644.98059	522.80231	33.78456	1655.82593	332.69891	38.07475	1459.08582	617.88947	640.70831	1483.71863	622.10022	459.88525	1492.91968	763.64819	323.63379	1549.16626	903.96844	162.73685	1606.32397	948.50116	169.97400	1574.87085	830.58716	35.86057	1651.11633	618.94159	1674.10242																																	 
111	1.100	1687.71899	510.47177	1626.31775	1556.60107	532.04645	1633.04724	1699.46875	630.09680	1562.67603	1570.27051	646.64728	1570.33606	1637.44690	652.93103	1417.38733	1633.61841	687.23132	1104.98230	1623.89355	527.72046	1343.17346	1622.28027	485.34784	1178.39661	1536.61951	710.74158	1246.82935	1784.49133	557.84509	1376.54602	1850.71936	583.47729	1177.38550	1860.16309	595.49298	1054.02979	1861.50256	594.66022	924.03217	1832.60547	599.90021	804.18359	1884.67090	620.66260	814.07227	1873.01636	630.69098	728.36700	1469.99463	583.96454	1369.66833	1393.31970	551.24280	1152.23267	1381.09680	509.45258	1048.20044	1386.86267	446.02112	927.67419	1430.18994	384.45245	854.22748	1386.65942	409.63766	834.08929	1400.69580	360.11984	780.78900	1735.28235	505.84702	945.59674	1498.58997	529.74719	938.43726	1701.56006	672.14044	966.18805	1552.22546	684.27893	969.52399	1773.41089	525.93756	642.89386	1726.29675	492.74606	470.38199	1726.02747	508.69366	276.08707	1683.35486	485.18887	68.41286	1645.15686	522.84467	33.83709	1655.96973	332.49274	37.82143	1458.63208	603.27075	640.17572	1482.32837	603.16687	459.26511	1491.37805	746.54138	325.91949	1547.08704	890.33911	168.43159	1603.97095	934.20190	179.54716	1575.15466	828.37714	36.71532	1645.89124	607.33203	1672.19373																																	 
112	1.110	1688.38757	500.50958	1626.77686	1557.22534	522.28949	1633.47351	1700.38916	620.46381	1563.80457	1571.20056	637.23914	1571.47925	1638.52148	643.63177	1417.78589	1634.45581	677.77478	1105.66663	1624.59033	518.37054	1343.94446	1622.64233	475.84827	1179.31641	1537.38147	701.34125	1247.56250	1785.02393	548.02216	1377.57324	1851.37524	571.61420	1178.41821	1860.72058	582.52606	1055.01184	1861.74792	580.22931	925.01984	1831.85168	586.19635	804.93707	1884.97729	604.80927	814.73712	1873.06909	615.13708	728.81537	1471.04565	575.30481	1371.07214	1394.41492	544.12781	1153.18799	1382.09607	503.84933	1048.64539	1387.15210	442.30078	927.17072	1429.99976	381.41208	852.47540	1386.55981	407.27390	832.97961	1400.43652	358.92883	778.54004	1736.03015	496.93542	946.46960	1499.44312	520.44281	939.17218	1701.97815	662.78101	967.55402	1552.75818	674.98291	970.34515	1774.40076	520.36169	643.36017	1727.43811	488.57297	470.28186	1726.58813	506.66422	276.26736	1683.34619	485.07333	68.44082	1645.24719	522.88379	33.81017	1656.04089	332.29507	37.54607	1458.23438	588.66199	639.41943	1481.50891	584.03516	458.64249	1490.01624	728.54614	327.75131	1544.44434	875.61133	173.34232	1600.69165	919.15308	189.15100	1575.36597	825.25763	38.57637																																				 
113	1.120	1688.98657	490.67563	1627.05286	1557.64368	512.47705	1633.71375	1701.75256	611.17542	1564.92163	1572.22620	627.96918	1572.52612	1639.69641	634.75958	1418.25391	1635.22107	668.46533	1106.15820	1625.15784	509.25043	1344.51099	1622.95032	466.58908	1179.91675	1538.29529	692.17462	1248.11462	1785.45935	538.23511	1378.37085	1852.24011	559.93616	1179.24329	1861.33582	569.59448	1055.66833	1862.11597	565.60901	925.74005	1831.99927	570.31592	805.60059	1885.29871	588.56921	815.13287	1873.20776	598.91644	729.02838	1471.96155	566.74255	1372.05701	1395.37305	537.09351	1153.91260	1382.99988	498.37360	1048.81140	1387.44568	438.48343	926.35516	1429.58215	378.04468	850.61267	1386.39355	405.00351	831.58966	1400.15405	357.57977	775.77844	1736.73669	487.87723	947.04919	1500.14941	511.44385	939.65442	1702.55237	653.67206	968.54242	1553.35303	665.89935	970.75458	1775.45178	514.68274	643.77759	1728.50757	484.38678	469.99130	1727.19092	504.23779	276.51831	1683.33813	485.02325	68.53388	1645.27246	522.90338	33.83289	1656.22363	331.83609	37.35265	1458.13000	574.28699	638.65955	1481.06384	564.99744	458.15018	1488.48865	709.75903	329.02402	1542.13855	860.71204	178.54114	1598.02454	903.90875	197.91962	1574.33215	817.66589	42.50115	1647.84033	587.03735	1674.15088																																	 
114	1.130	1689.58850	480.96347	1627.30872	1558.28430	502.81720	1634.03406	1702.66467	601.81335	1565.68604	1572.81067	618.62567	1573.18921	1640.96387	625.75995	1418.69470	1635.78943	659.14984	1106.34155	1625.66272	500.24780	1345.00366	1623.16614	457.42102	1180.42651	1539.26782	683.16949	1248.43152	1785.89148	528.57721	1378.89587	1853.07178	548.37872	1179.75366	1862.15076	556.75983	1056.13135	1862.55725	551.09528	926.22693	1832.17224	554.18591	806.02423	1885.64563	572.07953	815.28882	1873.31396	582.02759	729.04407	1472.72412	558.25446	1372.80847	1396.15479	530.12323	1154.32129	1383.73291	492.88904	1048.70020	1387.63416	434.76688	925.31158	1429.05457	375.64603	848.41931	1386.17676	402.82404	829.95947	1399.75476	356.92554	772.97992	1737.42285	478.89526	947.42877	1500.67383	502.77457	939.72113	1703.12878	644.83569	969.12317	1554.01245	657.09894	970.74048	1776.67297	508.87674	644.18872	1729.31909	480.08435	469.89362	1727.70203	501.70596	276.74902	1683.35083	484.97290	68.70570	1645.33240	522.92682	33.88530	1656.22119	331.70721	37.10952	1458.20349	560.17151	637.98590	1480.95886	546.04236	457.92404	1486.57178	690.54047	329.76813	1540.42334	845.96228	184.18855	1596.42639	889.11981	204.75938	1571.13013	805.98407	47.52830	1654.24109	578.32257	1677.90674																																	 
115	1.140	1690.24097	471.40353	1627.53064	1559.01074	493.43750	1634.41565	1703.37830	592.37671	1566.30139	1573.63208	609.47296	1574.04553	1641.73950	616.82849	1419.00891	1636.43225	650.12439	1106.61670	1626.05408	491.43958	1345.40637	1623.34448	448.71957	1180.68420	1540.27258	674.40582	1248.67273	1786.30566	519.04041	1379.11926	1853.91125	536.95306	1179.98132	1863.04358	543.92450	1056.19019	1862.95764	536.23914	926.30841	1833.61023	535.46198	805.98755	1885.97412	555.24738	815.16064	1873.46484	564.45599	728.78973	1473.24915	549.84900	1373.19910	1396.77136	523.33008	1154.33777	1384.25769	487.44434	1048.19775	1387.65283	431.31985	923.90570	1428.62500	373.10767	845.88123	1385.87598	400.79205	828.06628	1399.35254	355.92154	769.77258	1738.07434	469.96069	947.53827	1501.12622	494.56516	939.53503	1703.70618	636.05334	969.39935	1554.68481	648.43109	970.36017	1778.14856	502.85678	644.48578	1730.25183	475.92557	469.77982	1728.35034	499.51993	277.07629	1683.21533	484.87164	68.90607	1645.36462	522.92621	33.92055	1656.18701	331.53821	36.89885	1458.37988	546.66296	637.75293	1480.89258	527.10413	457.97766	1484.98071	671.58185	331.10690	1539.44763	830.62610	189.96130	1595.97644	873.89764	209.84941	1567.47156	791.38354	52.54459																																				 
116	1.150	1690.78967	461.89706	1627.69543	1559.57520	484.19391	1634.78186	1703.99658	583.04419	1566.83679	1574.12952	600.41553	1574.71570	1642.35718	607.82690	1419.37976	1637.09424	641.26355	1106.85132	1626.38037	482.77155	1345.69482	1623.45532	440.11584	1180.87720	1541.30042	665.81763	1248.79211	1786.67090	509.62250	1379.07910	1854.76807	525.58966	1179.96838	1864.00195	531.08264	1056.06628	1863.63855	521.30627	926.47778	1833.80383	518.63232	806.11548	1886.32275	538.22479	814.81885	1873.59814	546.23340	728.41083	1473.64587	541.55951	1373.43579	1397.29041	516.54926	1154.07263	1384.62781	481.91879	1047.43030	1387.68091	427.73657	922.22723	1428.16199	370.44217	843.17560	1385.50391	398.92227	825.87579	1399.00842	355.31158	766.45258	1738.80017	461.01733	947.64197	1501.52759	485.57129	939.45056	1704.54175	627.76202	969.64557	1555.37329	639.92651	969.81995	1779.16980	496.93594	644.60870	1731.10071	471.66870	469.75430	1728.62024	496.65253	277.17273	1683.37708	484.77719	68.82584	1645.37427	522.98914	33.97240	1656.00232	331.65170	36.57741	1458.77441	533.33246	637.86267	1480.86890	508.18582	458.61935	1485.01758	652.88269	333.34476	1538.62292	814.28546	195.19363	1595.79602	857.71204	213.66180	1562.51965	773.81195	57.49542																																				 
117	1.160	1691.32141	452.50107	1627.89880	1560.10425	474.88297	1635.16016	1704.61353	573.81824	1567.33850	1574.68140	591.22009	1575.27722	1642.98401	598.99097	1419.98181	1637.72522	632.57404	1107.14172	1626.63123	474.25500	1346.00366	1623.64526	431.65573	1181.05396	1542.33276	657.54681	1249.01111	1786.98523	500.42398	1378.88770	1855.50793	514.21960	1179.74402	1865.20166	518.02582	1055.87903	1864.24500	506.14984	926.35291	1833.92236	501.59070	806.30011	1886.62854	520.92462	814.42987	1873.73938	527.31250	727.99634	1473.91382	533.28754	1373.46826	1397.68811	509.96283	1153.56165	1384.99731	476.38208	1046.47034	1387.73132	424.18521	920.33337	1427.67163	368.04398	840.09479	1385.18433	397.14679	823.48993	1398.45630	354.69263	763.13373	1739.48865	452.66028	947.62457	1502.00464	477.10880	939.32336	1705.21509	619.37219	969.68866	1556.07507	631.40930	969.17969	1780.12390	490.82852	644.87445	1731.54272	466.98236	469.82013	1728.95679	494.35312	277.32248	1683.17273	484.64297	69.06657	1645.36926	522.96924	34.03547	1655.99268	331.53201	36.37450	1459.30603	520.09015	638.52753	1480.86121	489.53284	460.02686	1485.48413	634.38251	336.09729	1537.75952	796.77679	199.06740	1595.46130	840.61163	216.30980	1557.87024	755.03345	61.47234	1651.60620	548.71576	1676.67566																																	 
